<svg xmlns="http://www.w3.org/2000/svg" viewBox="0 0 100 100">
  <!-- Background -->
  <rect width="100" height="100" rx="18" fill="#0E1133"/>

  <!-- Outer J body (white) -->
  <path fill="white" d="
    M 56,9 L 70,9
    C 75,9 78,13 78,19
    L 78,68
    C 78,88 60,101 39,92
    C 23,85 17,68 27,56
    C 32,48 42,44 49,43
    L 51,51
    C 44,53 39,58 37,65
    C 35,75 46,87 58,84
    C 68,81 70,72 70,64
    L 70,19
    C 70,14 67,10 62,10
    L 56,10 Z
  "/>

  <!-- Inner swoosh cutout (navy) — creates the split brand mark -->
  <path fill="#0E1133" d="
    M 33,23
    C 29,13 36,7 47,7
    C 59,7 70,16 69,29
    C 67,20 60,13 50,12
    C 41,11 35,18 37,27
    C 38,35 47,41 57,39
    L 55,46
    C 40,46 31,35 33,23 Z
  "/>
</svg>
